<svg width="41" height="40" viewBox="0 0 41 40" fill="none" xmlns="http://www.w3.org/2000/svg">
<circle cx="20" cy="20" r="20" fill="url(#paint0_linear_201_263)"/>
<g filter="url(#filter0_f_201_263)">
<circle cx="24.5" cy="17.5" r="12.5" fill="#F3F3F3" fill-opacity="0.8"/>
</g>
<circle cx="25" cy="17" r="10" fill="#E8EBF0"/>
<path d="M6.5 14L6.83677 15.0365H7.92658L7.04491 15.6771L7.38168 16.7135L6.5 16.0729L5.61832 16.7135L5.95509 15.6771L5.07342 15.0365H6.16323L6.5 14Z" fill="#E8EBF0"/>
<path d="M14.5 27L14.8368 28.0365H15.9266L15.0449 28.6771L15.3817 29.7135L14.5 29.0729L13.6183 29.7135L13.9551 28.6771L13.0734 28.0365H14.1632L14.5 27Z" fill="#E8EBF0"/>
<path d="M6.5 24L6.83677 25.0365H7.92658L7.04491 25.6771L7.38168 26.7135L6.5 26.0729L5.61832 26.7135L5.95509 25.6771L5.07342 25.0365H6.16323L6.5 24Z" fill="#E8EBF0"/>
<defs>
<filter id="filter0_f_201_263" x="8" y="1" width="33" height="33" filterUnits="userSpaceOnUse" color-interpolation-filters="sRGB">
<feFlood flood-opacity="0" result="BackgroundImageFix"/>
<feBlend mode="normal" in="SourceGraphic" in2="BackgroundImageFix" result="shape"/>
<feGaussianBlur stdDeviation="2" result="effect1_foregroundBlur_201_263"/>
</filter>
<linearGradient id="paint0_linear_201_263" x1="-2.83122e-07" y1="40" x2="43.2478" y2="35.8506" gradientUnits="userSpaceOnUse">
<stop stop-color="#3D4584"/>
<stop offset="1" stop-color="#1143DE"/>
</linearGradient>
</defs>
</svg>
