<svg width="25" height="25" viewBox="0 0 26 26" fill="none" xmlns="http://www.w3.org/2000/svg">
<path d="M23 12C23 17.5228 18.5228 22 13 22C7.47715 22 3 17.5228 3 12C3 6.47715 7.47715 2 13 2C18.5228 2 23 6.47715 23 12Z" fill="#3B4787"/>
<path d="M13 22C14.3132 22 15.6136 21.7413 16.8268 21.2388C18.0401 20.7362 19.1425 19.9997 20.0711 19.0711C20.9997 18.1425 21.7362 17.0401 22.2388 15.8268C22.7413 14.6136 23 13.3132 23 12C23 10.6868 22.7413 9.38642 22.2388 8.17316C21.7362 6.95991 20.9997 5.85752 20.0711 4.92893C19.1425 4.00034 18.0401 3.26375 16.8268 2.7612C15.6136 2.25866 14.3132 2 13 2V22Z" fill="white"/>
</svg>
