<svg width="25" height="25" viewBox="0 0 26 26" fill="none" xmlns="http://www.w3.org/2000/svg">
<path d="M2.77777 12.5043C2.77777 7.25994 6.72588 3.00857 11.5961 3.00857C16.4664 3.00857 20.4145 7.25994 20.4145 12.5043C20.4145 17.7486 16.4664 22 11.5961 22C6.72588 22 2.77777 17.7486 2.77777 12.5043Z" fill="#3B4787"/>
<path d="M11.5961 3.00857C9.25734 3.00857 7.01436 4.009 5.3606 5.7898C3.70684 7.57059 2.77777 9.98586 2.77777 12.5043C2.77777 15.0227 3.70684 17.438 5.3606 19.2188C7.01436 20.9995 9.25734 22 11.5961 22V3.00857Z" fill="white"/>
<path d="M8.0688 12.5043C8.0688 6.21108 11.3757 0.159862 13.3598 4.43293C15.1235 8.23122 18.2099 5.26151 18.2099 11.5547C17.7901 17.2521 18.6508 18.6765 16.4251 20.1009C15.163 20.1009 13.8007 22 11.1552 22C9.49194 19.9586 8.0688 16.4677 8.0688 12.5043Z" fill="#3B4787"/>
<path d="M12.4779 22C14.8167 22 17.0597 20.9996 18.7135 19.2188C20.3672 17.438 21.2963 15.0227 21.2963 12.5043C21.2963 9.98586 20.3672 7.57059 18.7135 5.7898C17.0597 4.00901 14.8167 3.00857 12.478 3.00857L12.4779 22Z" fill="#3B4787"/>
</svg>
