<svg width="25" height="25" viewBox="0 0 26 26" fill="none" xmlns="http://www.w3.org/2000/svg">
<path d="M23 12C23 17.5228 18.5228 22 13 22C7.47715 22 3 17.5228 3 12C3 6.47715 7.47715 2 13 2C18.5228 2 23 6.47715 23 12Z" fill="#3B4787"/>
<path d="M13 22C15.6522 22 18.1957 20.9464 20.0711 19.0711C21.9464 17.1957 23 14.6522 23 12C23 9.34784 21.9464 6.8043 20.0711 4.92893C18.1957 3.05357 15.6522 2 13 2V22Z" fill="white"/>
<path d="M13 2C10.3478 2 7.8043 3.05357 5.92893 4.92893C4.05357 6.8043 3 9.34784 3 12C3 14.6522 4.05357 17.1957 5.92893 19.0711C7.80429 20.9464 10.3478 22 13 22V2Z" fill="#3B4787"/>
<path d="M19 11.9939C19 18.0653 17.1229 21.4881 14.2174 21.4881C11.8261 23.4869 8 19.4893 8 11.9939C8 5.92247 10.3554 2 13.2609 2C16.1664 2 19 5.92247 19 11.9939Z" fill="white"/>
</svg>
