<svg width="25" height="25" viewBox="0 0 25 25" fill="none" xmlns="http://www.w3.org/2000/svg">
<circle cx="12" cy="13" r="10" transform="rotate(180 12 13)" fill="#3B4787"/>
<path d="M12 3C10.6868 3 9.38642 3.25865 8.17316 3.7612C6.95991 4.26375 5.85751 5.00034 4.92893 5.92893C4.00034 6.85752 3.26375 7.95991 2.7612 9.17316C2.25865 10.3864 2 11.6868 2 13C2 14.3132 2.25865 15.6136 2.7612 16.8268C3.26375 18.0401 4.00034 19.1425 4.92893 20.0711C5.85752 20.9997 6.95991 21.7362 8.17316 22.2388C9.38642 22.7413 10.6868 23 12 23L12 13L12 3Z" fill="white"/>
</svg>
