<svg width="25" height="25" viewBox="0 0 25 25" fill="none" xmlns="http://www.w3.org/2000/svg">
<path d="M2 13C2 7.47715 6.47715 3 12 3C17.5228 3 22 7.47715 22 13C22 18.5228 17.5228 23 12 23C6.47715 23 2 18.5228 2 13Z" fill="#3B4787"/>
<path d="M12 3C9.34784 3 6.8043 4.05357 4.92893 5.92893C3.05357 7.8043 2 10.3478 2 13C2 15.6522 3.05357 18.1957 4.92893 20.0711C6.80429 21.9464 9.34784 23 12 23V3Z" fill="white"/>
<path d="M12 23C14.6522 23 17.1957 21.9464 19.0711 20.0711C20.9464 18.1957 22 15.6522 22 13C22 10.3478 20.9464 7.8043 19.0711 5.92893C17.1957 4.05357 14.6522 3 12 3V23Z" fill="#3B4787"/>
<path d="M6 13.0061C6 6.93469 7.87711 3.51191 10.7826 3.51191C13.1739 1.51313 17 5.51069 17 13.0061C17 19.0775 14.6446 23 11.7391 23C8.83363 23 6 19.0775 6 13.0061Z" fill="white"/>
</svg>
