<svg width="25" height="25" viewBox="0 0 25 25" fill="none" xmlns="http://www.w3.org/2000/svg">
<path d="M23 12C23 17.5229 18.5228 22 13 22C7.47715 22 3 17.5229 3 12C3 6.47716 7.47715 2.00001 13 2.00001C18.5228 2.00001 23 6.47716 23 12Z" fill="#3B4787"/>
<path d="M13 22C15.6522 22 18.1957 20.9464 20.0711 19.0711C21.9464 17.1957 23 14.6522 23 12C23 9.34785 21.9464 6.80431 20.0711 4.92894C18.1957 3.05358 15.6522 2.00001 13 2.00001V22Z" fill="white"/>
<path d="M17 12C17 18.6274 13.25 25 11 20.5C8.99999 16.5 5.49999 19.6274 5.49999 13C5.97604 7 4.99998 5.5 7.52394 4C8.95513 4 10.5 2 13.5 2C15.3861 4.14984 17 7.82606 17 12Z" fill="#3B4787"/>
<path d="M13 2.00001C10.3478 2.00001 7.8043 3.05358 5.92893 4.92894C4.05357 6.80431 3 9.34785 3 12C3 14.6522 4.05357 17.1957 5.92893 19.0711C7.80429 20.9464 10.3478 22 13 22V2.00001Z" fill="#3B4787"/>
</svg>
